# xmcd
#
# Track frame offsets: 
#        150
#        51631
#        100268
#        138593
#
# Disc length: 2390 seconds
#
# Revision: 0
# Processed by: cddbd v1.5.2PL0 Copyright (c) Steve Scherf et al.
# Submitted via: ExactAudioCopy v0.95b4
#
DISCID=39095404
DTITLE=Jandek - Brooklyn Wednesday CD1
DYEAR=2007
DGENRE=Blues
TTITLE0=Put Me There
TTITLE1=Destroy the Day
TTITLE2=Obscure Physics
TTITLE3=Structure of Words
EXTD=
EXTT0=
EXTT1=
EXTT2=
EXTT3=
PLAYORDER=
